<svg width="109" height="83" viewBox="0 0 109 83" fill="none" xmlns="http://www.w3.org/2000/svg">
<path d="M28.5041 11.5463L28.6133 11.5747C27.5166 12.5979 24.4498 15.7681 25.2033 18.5429C25.4574 19.4785 26.2376 20.235 26.9694 20.9465C27.6146 21.5729 28.2221 22.1604 28.3968 22.8039C28.8357 24.4201 27.6008 26.1028 26.8676 26.9221L26.6721 26.87C26.8968 26.3683 27.1239 25.5686 26.9248 24.8357C26.6506 23.8257 25.9129 23.1593 25.1652 22.4828C24.3917 21.7844 23.6077 21.0743 23.305 19.9596C22.2538 16.0888 26.9505 12.583 28.5041 11.5463ZM22.1441 15.4712C23.7466 13.0051 25.4973 10.3101 24.653 7.20096C24.2709 5.79416 23.4511 5.05208 23.068 4.76987L22.9893 4.84744C23.133 5.10945 23.3746 5.59871 23.5581 6.27425C24.3267 9.10474 22.4636 11.7396 20.6617 14.2925C18.9712 16.6883 17.3327 19.0083 17.9674 21.3456C18.8777 24.698 22.7445 25.8621 24.3778 26.3542L24.5025 26.3929L24.5732 26.3193C24.4751 26.2565 24.372 26.1926 24.2637 26.1277C22.8791 25.2761 20.7767 23.9846 20.0562 21.3315C19.5503 19.4687 20.7941 17.5515 22.1441 15.4712ZM25.9264 32.4111C28.9056 31.6021 30.8735 30.6089 31.7279 30.0958L33.3532 30.5248C32.1988 31.5691 29.3706 32.8938 26.2783 33.7336C22.6423 34.721 18.4549 35.0203 18.1605 33.9832C17.9962 33.4113 19.1929 32.6765 20.5277 32.0493L20.6254 32.0753C20.6254 32.0753 20.1972 32.3747 20.3087 32.7652C20.4759 33.3544 23.0031 33.2049 25.9248 32.4115M20.9605 37.6965C20.7734 37.0074 22.1023 36.2984 22.7155 35.9922L22.8137 36.02C22.7247 36.133 22.6946 36.2626 22.7208 36.3589C22.8432 36.8098 24.5257 36.7954 26.934 36.1414C29.0923 35.5553 30.2194 34.9645 30.8858 34.6004L32.8205 35.1141C32.7592 35.1888 31.3937 36.6712 27.3709 37.7636C24.4475 38.5575 21.2196 38.6506 20.9605 37.6965ZM34.5721 30.8666C36.2563 29.1888 37.8857 27.3029 37.4128 25.1138C37.1023 23.6767 35.5182 22.9917 34.1697 23.6553L34.1943 23.4455L34.1934 23.4421C34.5221 23.2368 34.9407 23.0288 35.4356 22.8944C37.0281 22.462 38.5083 23.0846 39.0264 24.3783C40.0679 26.9714 36.7447 29.7453 34.7813 30.9222L34.5721 30.8666ZM39.2779 35.0071C39.7947 36.8433 33.8297 39.6382 28.2462 41.2071C23.4259 42.5614 15.3871 43.7633 14.8708 41.9288C14.5154 40.6598 17.6638 38.8583 19.4358 38.1051L19.6603 38.1638C19.6603 38.1638 17.0888 39.5457 17.4114 40.7003C17.7348 41.851 23.78 41.2811 27.9401 40.1133C34.3843 38.3017 38.471 36.0622 38.6002 34.4948L38.6772 34.4177C38.904 34.5048 39.182 34.6741 39.2779 35.0071ZM20.6447 44.0928C23.138 43.8256 25.6049 43.3528 28.0203 42.6792C38.4798 39.7409 40.7388 36.3603 41.0426 35.6757L41.1348 35.7015C41.5807 37.7709 36.4967 40.9722 29.6747 42.8882C26.2022 43.8638 22.9248 44.3222 20.4671 44.2734L20.6447 44.0928ZM20.7817 27.222C18.9976 27.857 15.2418 29.4989 15.5216 30.5291C15.7335 31.3093 19.6191 31.4346 25.2396 29.9084C30.2959 28.5353 33.2287 26.7143 33.8749 26.1489L32.617 25.8105C31.8975 26.2326 29.186 27.6598 24.9419 28.8123C22.4424 29.4911 18.0107 30.1995 17.8195 29.4952C17.6479 28.8636 20.2023 27.6459 20.9365 27.2978L20.9832 27.2761L20.7817 27.222Z" fill="white"/>
<path d="M85.8568 19.2606L79.1942 17.3269M79.1942 17.3269L76.9408 16.6729C75.746 16.3262 74.4422 16.2496 73.4331 16.9777C72.3566 17.7553 71.0189 19.2228 70.2279 21.9485C69.4372 24.6727 69.781 26.6298 70.274 27.8629C70.7366 29.0181 71.8787 29.6514 73.0736 29.9981L75.327 30.6521M79.1942 17.3269L79.8482 15.0735C80.195 13.8787 80.8282 12.7365 81.9834 12.2739C83.2165 11.781 85.1721 11.4368 87.8978 12.2278C90.6221 13.0185 92.091 14.3566 92.8686 15.433C93.5967 16.4422 93.5201 17.7459 93.1734 18.9407L92.5194 21.1942M81.9896 32.5857L88.6522 34.5193M88.6522 34.5193L90.9041 35.1729C92.0989 35.5197 93.4042 35.5967 94.4118 34.8681C95.4897 34.091 96.8274 32.6235 97.6185 29.8978C98.4091 27.1735 98.0653 25.2164 97.5724 23.9834C97.1098 22.8282 95.9662 22.1945 94.7728 21.8482L92.5194 21.1942M88.6522 34.5193L87.9986 36.7713C87.6518 37.9661 87.0181 39.1098 85.8634 39.5708C84.6299 40.0653 82.6743 40.4095 79.9485 39.6185C77.2243 38.8278 75.7553 37.4897 74.9777 36.4132C74.2497 35.4041 74.3267 34.0989 74.673 32.9055L75.327 30.6521M92.5194 21.1942L91.4452 24.8956C91.2172 25.6809 90.6867 26.3436 89.9702 26.7377C89.2537 27.1319 88.41 27.2253 87.6246 26.9974L80.2217 24.8489C79.4364 24.621 78.5927 24.7144 77.8762 25.1085C77.1597 25.5027 76.6291 26.1653 76.4012 26.9507L75.327 30.6521" stroke="white" stroke-width="1.5" stroke-linecap="round" stroke-linejoin="round"/>
<path d="M85.5719 36.836C85.4864 37.1305 85.2874 37.3789 85.0188 37.5268C84.7501 37.6746 84.4337 37.7096 84.1392 37.6241C83.8447 37.5386 83.5962 37.3397 83.4484 37.071C83.3006 36.8023 83.2655 36.4859 83.351 36.1914C83.4365 35.8969 83.6354 35.6484 83.9041 35.5006C84.1728 35.3528 84.4892 35.3178 84.7837 35.4033C85.0782 35.4887 85.3267 35.6877 85.4745 35.9564C85.6223 36.2251 85.6573 36.5414 85.5719 36.836ZM82.2744 15.0103C82.3599 14.7158 82.5588 14.4673 82.8275 14.3195C83.0962 14.1717 83.4126 14.1367 83.7071 14.2222C84.0016 14.3076 84.2501 14.5066 84.3979 14.7753C84.5457 15.044 84.5807 15.3604 84.4953 15.6549C84.4098 15.9494 84.2108 16.1979 83.9422 16.3457C83.6735 16.4935 83.3571 16.5285 83.0626 16.443C82.7681 16.3576 82.5196 16.1586 82.3718 15.8899C82.224 15.6212 82.1889 15.3048 82.2744 15.0103Z" fill="white"/>
<path d="M60.5 36.2708L75.6016 41.652L73.3125 61.6395L60.5 68.7291L47.6875 61.6395L45.3983 41.652L60.5 36.2708ZM60.5 39.8583L51.0529 61.0416H54.5721L56.4683 56.2924H64.4975L66.3937 61.0416H69.8958L60.5 39.8583ZM63.2675 53.3541H57.7496L60.5 46.7428L63.2675 53.3541Z" fill="white"/>
<mask id="mask0_2057_29" style="mask-type:luminance" maskUnits="userSpaceOnUse" x="19" y="52" width="24" height="24">
<path d="M19 52H43V76H19V52Z" fill="white"/>
</mask>
<g mask="url(#mask0_2057_29)">
<path fill-rule="evenodd" clip-rule="evenodd" d="M19 52H43V76H19V52ZM37.347 72.12C36.234 72.12 35.605 71.54 35.122 70.75L33.289 71.815C33.951 73.123 35.304 74.121 37.399 74.121C39.541 74.121 41.136 73.009 41.136 70.978C41.136 69.095 40.054 68.258 38.138 67.435L37.574 67.194C36.606 66.774 36.187 66.501 36.187 65.824C36.187 65.277 36.607 64.858 37.267 64.858C37.914 64.858 38.331 65.131 38.718 65.824L40.474 64.697C39.731 63.39 38.701 62.891 37.267 62.891C35.253 62.891 33.964 64.179 33.964 65.871C33.964 67.706 35.044 68.575 36.672 69.268L37.236 69.51C38.265 69.96 38.878 70.234 38.878 71.007C38.878 71.653 38.281 72.12 37.347 72.12ZM28.607 72.105C27.832 72.105 27.509 71.575 27.155 70.945L25.319 72.057C25.851 73.183 26.897 74.117 28.702 74.117C30.701 74.117 32.07 73.054 32.07 70.719V63.019H29.815V70.689C29.815 71.816 29.347 72.105 28.606 72.105" fill="white"/>
</g>
<path d="M105.715 62.3751C105.625 62.3151 104.875 61.7301 103.255 61.7301C102.835 61.7301 102.415 61.7751 101.995 61.8501C101.68 59.7501 99.925 58.6851 99.85 58.6401L99.415 58.3851L99.145 58.7901C98.785 59.3301 98.5 59.9451 98.38 60.5751C98.08 61.7751 98.26 62.9151 98.875 63.8901C98.14 64.3101 96.94 64.4151 96.685 64.4151H76.93C76.42 64.4151 76 64.8351 76 65.3601C76 67.0851 76.27 68.8101 76.87 70.4301C77.545 72.2151 78.565 73.5351 79.87 74.3451C81.34 75.2451 83.755 75.7551 86.5 75.7551C87.685 75.7551 88.915 75.6501 90.13 75.4251C91.81 75.1251 93.43 74.5401 94.915 73.6851C96.1449 72.9818 97.2457 72.0738 98.17 71.0001C99.745 69.2451 100.675 67.2501 101.35 65.5251H101.635C103.345 65.5251 104.41 64.8351 104.995 64.2501C105.385 63.8901 105.67 63.4551 105.88 62.9451L106 62.5851L105.715 62.3751ZM78.775 63.8601H81.415C81.535 63.8601 81.655 63.7551 81.655 63.6201V61.2501C81.655 61.1301 81.55 61.0101 81.415 61.0101H78.775C78.64 61.0101 78.535 61.1151 78.535 61.2501V63.6201C78.55 63.7551 78.64 63.8601 78.775 63.8601ZM82.42 63.8601H85.06C85.18 63.8601 85.3 63.7551 85.3 63.6201V61.2501C85.3 61.1301 85.195 61.0101 85.06 61.0101H82.42C82.285 61.0101 82.18 61.1151 82.18 61.2501V63.6201C82.195 63.7551 82.285 63.8601 82.42 63.8601ZM86.125 63.8601H88.75C88.9 63.8601 89.005 63.7551 89.005 63.6201V61.2501C89.005 61.1301 88.915 61.0101 88.75 61.0101H86.125C86.005 61.0101 85.9 61.1151 85.9 61.2501V63.6201C85.9 63.7551 85.99 63.8601 86.125 63.8601ZM89.785 63.8601H92.44C92.56 63.8601 92.665 63.7551 92.665 63.6201V61.2501C92.665 61.1301 92.575 61.0101 92.44 61.0101H89.785C89.665 61.0101 89.56 61.1151 89.56 61.2501V63.6201C89.56 63.7551 89.665 63.8601 89.785 63.8601ZM82.42 60.5001H85.06C85.18 60.5001 85.3 60.3651 85.3 60.2301V57.8751C85.3 57.7401 85.195 57.6351 85.06 57.6351H82.42C82.285 57.6351 82.18 57.7251 82.18 57.8751V60.2301C82.195 60.3651 82.285 60.5001 82.42 60.5001ZM86.125 60.5001H88.75C88.9 60.5001 89.005 60.3651 89.005 60.2301V57.8751C89.005 57.7401 88.915 57.6351 88.75 57.6351H86.125C86.005 57.6351 85.9 57.7251 85.9 57.8751V60.2301C85.9 60.3651 85.99 60.5001 86.125 60.5001ZM89.785 60.5001H92.44C92.56 60.5001 92.665 60.3651 92.665 60.2301V57.8751C92.665 57.7401 92.56 57.6351 92.44 57.6351H89.785C89.665 57.6351 89.56 57.7251 89.56 57.8751V60.2301C89.56 60.3651 89.665 60.5001 89.785 60.5001ZM89.785 57.0801H92.44C92.56 57.0801 92.665 56.9751 92.665 56.8401V54.5001C92.665 54.3501 92.56 54.2451 92.44 54.2451H89.785C89.665 54.2451 89.56 54.3351 89.56 54.5001V56.8401C89.56 56.9601 89.665 57.0801 89.785 57.0801ZM93.475 63.8601H96.115C96.25 63.8601 96.355 63.7551 96.355 63.6201V61.2501C96.355 61.1301 96.25 61.0101 96.115 61.0101H93.475C93.355 61.0101 93.25 61.1151 93.25 61.2501V63.6201C93.25 63.7551 93.355 63.8601 93.475 63.8601Z" fill="white"/>
</svg>
